<?xml version="1.0" encoding="utf-8"?>
<!-- Generator: Adobe Illustrator 21.0.0, SVG Export Plug-In . SVG Version: 6.00 Build 0)  -->
<svg version="1.1" id="BrowserWindow" xmlns="http://www.w3.org/2000/svg" xmlns:xlink="http://www.w3.org/1999/xlink" x="0px"
	 y="0px" viewBox="0 0 3649 2736.7" style="enable-background:new 0 0 3649 2736.7;" xml:space="preserve">
<style type="text/css">
	.st0{fill:#FFFFFF;}
	.st1{fill:#D9DFE2;}
	.st2{fill:#E6ECEF;}
	.st3{fill:#BEC4C6;}
	.st4{fill:#FF8585;}
	.st5{fill:#FFD071;}
	.st6{fill:#74ED94;}
</style>
<g id="white_screen">
	<g id="white_screen_2_">
		<path class="st0" d="M3590.4,2736.7H58.6c-32.3,0-58.6-26.2-58.6-58.6V58.6C0,26.2,26.2,0,58.6,0h3531.8
			c32.3,0,58.6,26.2,58.6,58.6v2619.6C3649,2710.5,3622.7,2736.7,3590.4,2736.7z"/>
	</g>
</g>
<rect id="divider_1_" x="0" y="295.8" class="st1" width="3649" height="3.2"/>
<path id="browser_bar" class="st2" d="M3649,295.8H0V58.6C0,26.2,26.2,0,58.6,0h3531.8c32.3,0,58.6,26.2,58.6,58.6V295.8z"/>
<g id="expand">
	<path class="st3" d="M3527.4,100.4c-1.1-1.1-2.6-1.7-4.2-1.6l-22.6,1.2c-3,0.2-5.4,2.8-5.2,5.8c0.2,3,2.7,5.4,5.8,5.2l8.3-0.4
		l-21.5,21.5c-2.2,2.2-2.2,5.6,0,7.8c1.1,1.1,2.5,1.6,3.9,1.6s2.8-0.5,3.9-1.6l21.5-21.5l-0.4,8.3c-0.2,3,2.2,5.6,5.2,5.8
		c0.1,0,0.2,0,0.3,0c2.9,0,5.3-2.3,5.5-5.2l1.2-22.6C3529,103,3528.5,101.5,3527.4,100.4z"/>
	<path class="st3" d="M3464.1,155.9l-21.5,21.5l0.4-8.3c0.2-3-2.2-5.6-5.2-5.8c-3-0.2-5.6,2.2-5.8,5.2l-1.2,22.6
		c-0.1,1.6,0.5,3.1,1.6,4.2c1,1,2.4,1.6,3.9,1.6c0.1,0,0.2,0,0.3,0l22.6-1.2c3-0.2,5.4-2.8,5.2-5.8c-0.2-3-2.7-5.4-5.8-5.2l-8.3,0.4
		l21.5-21.5c2.2-2.2,2.2-5.6,0-7.8C3469.7,153.8,3466.2,153.8,3464.1,155.9z"/>
</g>
<g id="search_bar">
	<path class="st0" d="M1103.1,80h2193.7c7.7,0,14,6.3,14,14v107.8c0,7.7-6.3,14-14,14H1103.1c-7.7,0-14-6.3-14-14V94
		C1089.1,86.2,1095.4,80,1103.1,80z"/>
	<path class="st3" d="M3240.3,142.4c-3,0-5.5,2.5-5.5,5.5c0,16.2-13.2,29.3-29.3,29.3s-29.3-13.2-29.3-29.3s13.2-29.3,29.3-29.3
		c0.8,0,1.6,0,2.4,0.1v7.6c0,1.9,2.3,2.9,3.7,1.7l14.2-12.4c1.5-1.3,1.5-3.6,0-4.9l-14.2-12.4c-1.4-1.3-3.7-0.2-3.7,1.7v7.6
		c-0.8,0-1.6-0.1-2.4-0.1c-22.3,0-40.4,18.1-40.4,40.4s18.1,40.4,40.4,40.4s40.4-18.1,40.4-40.4
		C3245.8,144.8,3243.3,142.4,3240.3,142.4z"/>
</g>
<g id="_x3C_">
	<path class="st0" d="M771.5,215.8H647.3c-7.7,0-14-6.3-14-14V94c0-7.7,6.3-14,14-14h124.2c7.7,0,14,6.3,14,14v107.8
		C785.5,209.5,779.2,215.8,771.5,215.8z"/>
	<g>
		<path class="st3" d="M725.4,186.4c-1.4,0-2.7-0.5-3.8-1.5l-35.2-33.1c-1.1-1-1.7-2.5-1.7-4s0.6-3,1.7-4l35.2-33.1
			c2.2-2.1,5.7-2,7.8,0.2c2.1,2.2,2,5.7-0.2,7.8l-30.9,29l30.9,29c2.2,2.1,2.3,5.6,0.2,7.8C728.3,185.9,726.8,186.4,725.4,186.4z"/>
	</g>
</g>
<g id="_x3E_">
	<path class="st0" d="M830.9,80h124.2c7.7,0,14,6.3,14,14v107.8c0,7.7-6.3,14-14,14H830.9c-7.7,0-14-6.3-14-14V94
		C816.9,86.2,823.2,80,830.9,80z"/>
	<g>
		<path class="st3" d="M877.1,186.4c-1.5,0-2.9-0.6-4-1.7c-2.1-2.2-2-5.7,0.2-7.8l30.9-29l-30.9-29c-2.2-2.1-2.3-5.6-0.2-7.8
			c2.1-2.2,5.6-2.3,7.8-0.2l35.2,33.1c1.1,1,1.7,2.5,1.7,4s-0.6,3-1.7,4L880.8,185C879.8,185.9,878.4,186.4,877.1,186.4z"/>
	</g>
</g>
<g id="buttons">
	<circle class="st4" cx="165.7" cy="147.9" r="46.4"/>
	<circle class="st5" cx="316.1" cy="147.9" r="46.4"/>
	<circle class="st6" cx="466.5" cy="147.9" r="46.4"/>
</g>
</svg>
